<svg width="54" height="54" viewBox="0 0 54 54" fill="none" xmlns="http://www.w3.org/2000/svg">
<circle cx="27" cy="27" r="27" fill="white"/>
<circle cx="26.9995" cy="27" r="23.5161" fill="#E9FF88"/>
<path d="M35.3045 40.8384H16.5845V36.7184L26.1445 26.8784C28.2778 24.6117 29.3445 22.745 29.3445 21.2784C29.3445 20.185 28.9978 19.305 28.3045 18.6384C27.6378 17.9717 26.7711 17.6384 25.7045 17.6384C23.5711 17.6384 22.0111 18.7317 21.0245 20.9184L16.3845 18.1984C17.2378 16.305 18.4778 14.8517 20.1045 13.8384C21.7578 12.7984 23.5978 12.2784 25.6245 12.2784C28.1578 12.2784 30.3311 13.0784 32.1445 14.6784C33.9578 16.2517 34.8645 18.385 34.8645 21.0784C34.8645 23.985 33.3311 26.9717 30.2645 30.0384L24.7845 35.5184H35.3045V40.8384Z" fill="#FE0AB7"/>
</svg>
