<svg width="51" height="53" viewBox="0 0 51 53" fill="none" xmlns="http://www.w3.org/2000/svg">
<rect x="-0.000976562" width="51" height="51" rx="5" fill="white"/>
<rect x="3.99902" y="4" width="43" height="43" rx="5" fill="#FE0AB7"/>
<path d="M6.60699 13.6L13.967 11H18.767V39H13.247V16.84L7.96699 18.32L6.60699 13.6ZM34.2357 39.56C30.7424 39.56 27.9957 38.24 25.9957 35.6C24.0224 32.9067 23.0357 29.3733 23.0357 25C23.0357 20.6267 24.0224 17.1067 25.9957 14.44C27.9957 11.7733 30.7424 10.44 34.2357 10.44C37.7824 10.44 40.5291 11.7733 42.4757 14.44C44.4491 17.1067 45.4357 20.6267 45.4357 25C45.4357 29.3733 44.4491 32.9067 42.4757 35.6C40.5291 38.24 37.7824 39.56 34.2357 39.56ZM39.9557 25C39.9557 22.0133 39.4624 19.7333 38.4757 18.16C37.5157 16.5867 36.1024 15.8 34.2357 15.8C32.3691 15.8 30.9557 16.5867 29.9957 18.16C29.0357 19.7333 28.5557 22.0133 28.5557 25C28.5557 27.9867 29.0357 30.2667 29.9957 31.84C30.9557 33.3867 32.3691 34.16 34.2357 34.16C36.1024 34.16 37.5157 33.3733 38.4757 31.8C39.4624 30.2267 39.9557 27.96 39.9557 25Z" fill="#E9FF88"/>
</svg>
