<svg width="51" height="53" viewBox="0 0 51 53" fill="none" xmlns="http://www.w3.org/2000/svg">
<rect width="51" height="51" rx="5" fill="white"/>
<rect x="4" y="4" width="43" height="43" rx="5" fill="#E9FF88"/>
<path d="M33.0453 11L26.8453 20.08C29.752 20.16 32.112 21.1067 33.9253 22.92C35.7386 24.7333 36.6453 27.0267 36.6453 29.8C36.6453 32.6533 35.6986 35 33.8053 36.84C31.912 38.6533 29.472 39.56 26.4853 39.56C23.4986 39.56 21.0586 38.6533 19.1653 36.84C17.2986 35.0533 16.3653 32.7067 16.3653 29.8C16.3653 27.6933 16.912 25.8133 18.0053 24.16L26.7253 11H33.0453ZM31.1653 29.8C31.1653 28.4667 30.7253 27.3867 29.8453 26.56C28.9653 25.7067 27.8453 25.28 26.4853 25.28C25.1253 25.28 24.0053 25.6933 23.1253 26.52C22.272 27.3467 21.8453 28.44 21.8453 29.8C21.8453 31.16 22.272 32.2667 23.1253 33.12C24.0053 33.9467 25.1253 34.36 26.4853 34.36C27.8453 34.36 28.9653 33.9467 29.8453 33.12C30.7253 32.2667 31.1653 31.16 31.1653 29.8Z" fill="#FE0AB7"/>
</svg>
