<svg width="63" height="65" viewBox="0 0 63 65" fill="none" xmlns="http://www.w3.org/2000/svg">
<rect y="13.3135" width="51" height="51" rx="5" transform="rotate(-14.6546 0 13.3135)" fill="white"/>
<rect x="4.88184" y="16.1709" width="43" height="43" rx="5" transform="rotate(-14.6546 4.88184 16.1709)" fill="#FE0AB7"/>
<path d="M37.2775 19.6487L33.9283 27.5531C35.9533 27.6024 37.6993 28.1657 39.1662 29.243C40.659 30.3135 41.6516 31.7904 42.1441 33.6737C42.8727 36.4601 42.5011 38.8863 41.0293 40.9526C39.6091 43.0053 37.5316 44.3892 34.7969 45.1044C32.6556 45.6643 30.6311 45.67 28.7236 45.1214C26.8094 44.547 25.2387 43.4418 24.0115 41.8057L27.8898 37.98C29.0812 39.9011 30.9282 40.5344 33.4307 39.88C34.7981 39.5225 35.7715 38.9234 36.351 38.0828C36.9496 37.2096 37.1005 36.2054 36.8036 35.0703C36.5135 33.9609 35.8938 33.172 34.9444 32.7036C34.0208 32.2285 32.8754 32.1697 31.508 32.5273L30.347 32.8309L27.4864 30.2713L31.0053 21.909L20.4019 24.6818L19.0964 19.6897L36.1239 15.237L37.2775 19.6487Z" fill="#E9FF88"/>
</svg>
