<svg width="55" height="55" viewBox="0 0 55 55" fill="none" xmlns="http://www.w3.org/2000/svg">
<circle cx="27.6345" cy="27.5148" r="27" transform="rotate(-0.352922 27.6345 27.5148)" fill="white"/>
<circle cx="27.6351" cy="27.5154" r="23.5161" transform="rotate(-0.352922 27.6351 27.5154)" fill="#E9FF88"/>
<path d="M37.3137 22.4535C37.327 24.6135 36.7787 26.5102 35.6687 28.1438L35.7087 28.1435L27.07 41.357L20.7501 41.3959L26.9338 32.2376C24.027 32.2289 21.648 31.3235 19.7969 29.5215C17.9724 27.7194 17.0515 25.405 17.0341 22.5784C17.0164 19.6985 17.9353 17.3594 19.7909 15.5613C21.6731 13.7364 24.1074 12.8147 27.094 12.7963C30.0806 12.7779 32.5262 13.6695 34.4306 15.4711C36.3351 17.2728 37.2961 19.6002 37.3137 22.4535ZM22.514 22.5447C22.5224 23.9046 22.9692 25.0086 23.8544 25.8565C24.7395 26.6777 25.8487 27.0842 27.182 27.076C28.5686 27.0675 29.6861 26.6472 30.5343 25.8153C31.409 24.9566 31.8422 23.8472 31.8338 22.4873C31.8254 21.1273 31.3787 20.0367 30.4936 19.2155C29.6352 18.3941 28.5127 17.9876 27.1261 17.9962C25.7928 18.0044 24.6887 18.4379 23.814 19.2966C22.9391 20.1287 22.5058 21.2114 22.514 22.5447Z" fill="#FE0AB7"/>
</svg>
