<svg width="54" height="54" viewBox="0 0 54 54" fill="none" xmlns="http://www.w3.org/2000/svg">
<circle cx="27" cy="27" r="27" fill="white"/>
<circle cx="26.9995" cy="26.9995" r="23.5161" fill="#05385F"/>
<path d="M24.3626 22.1678H27.2426C29.9626 22.1678 32.2292 22.9811 34.0426 24.6078C35.8826 26.2078 36.8026 28.4478 36.8026 31.3278C36.8026 34.2078 35.8292 36.4611 33.8826 38.0878C31.9892 39.7144 29.6292 40.5278 26.8026 40.5278C24.5092 40.5278 22.4959 40.0211 20.7626 39.0078C19.0559 37.9678 17.8159 36.4744 17.0426 34.5278L21.7626 31.7678C22.4292 34.0078 24.1092 35.1278 26.8026 35.1278C28.2159 35.1278 29.3092 34.7944 30.0826 34.1278C30.8826 33.4344 31.2826 32.5011 31.2826 31.3278C31.2826 30.1811 30.8959 29.2611 30.1226 28.5678C29.3492 27.8744 28.2959 27.5278 26.9626 27.5278H18.4826L19.6026 11.9678H35.4826V17.1278H24.7226L24.3626 22.1678Z" fill="#E9FF88"/>
</svg>
