<svg width="54" height="54" viewBox="0 0 54 54" fill="none" xmlns="http://www.w3.org/2000/svg">
<circle cx="27" cy="27" r="27" fill="white"/>
<path d="M50.5157 26.9995C50.5157 39.9871 39.9871 50.5157 26.9995 50.5157C14.0119 50.5157 3.4834 39.9871 3.4834 26.9995C3.4834 14.0119 14.0119 3.4834 26.9995 3.4834C39.9871 3.4834 50.5157 14.0119 50.5157 26.9995Z" fill="#05385F"/>
<path d="M32.7178 26.2789C35.3044 27.8255 36.5978 30.0789 36.5978 33.0389C36.5978 35.6255 35.6911 37.6655 33.8778 39.1589C32.0911 40.6522 29.6511 41.3989 26.5578 41.3989C23.4378 41.3989 20.9844 40.6522 19.1978 39.1589C17.4111 37.6655 16.5178 35.6255 16.5178 33.0389C16.5178 30.1055 17.7978 27.8522 20.3578 26.2789C18.4111 24.8922 17.4378 22.9589 17.4378 20.4789C17.4378 17.8922 18.3044 15.8789 20.0378 14.4389C21.7978 12.9989 23.9711 12.2789 26.5578 12.2789C29.1711 12.2789 31.3311 12.9989 33.0378 14.4389C34.7711 15.8789 35.6378 17.8922 35.6378 20.4789C35.6378 22.9589 34.6644 24.8922 32.7178 26.2789ZM30.1578 20.7589C30.1578 19.7455 29.8244 18.9455 29.1578 18.3589C28.4911 17.7722 27.6244 17.4789 26.5578 17.4789C25.4911 17.4789 24.6244 17.7722 23.9578 18.3589C23.2911 18.9455 22.9578 19.7455 22.9578 20.7589C22.9578 21.7989 23.2911 22.6122 23.9578 23.1989C24.6244 23.7855 25.4911 24.0789 26.5578 24.0789C27.6244 24.0789 28.4911 23.7855 29.1578 23.1989C29.8244 22.6122 30.1578 21.7989 30.1578 20.7589ZM29.8778 35.1589C30.7044 34.4655 31.1178 33.5189 31.1178 32.3189C31.1178 31.1189 30.7044 30.1855 29.8778 29.5189C29.0511 28.8255 27.9444 28.4789 26.5578 28.4789C25.1711 28.4789 24.0644 28.8255 23.2378 29.5189C22.4111 30.1855 21.9978 31.1189 21.9978 32.3189C21.9978 33.5189 22.4111 34.4655 23.2378 35.1589C24.0644 35.8522 25.1711 36.1989 26.5578 36.1989C27.9444 36.1989 29.0511 35.8522 29.8778 35.1589Z" fill="#E9FF88"/>
</svg>
