<svg width="102" height="114" viewBox="0 0 102 114" fill="none" xmlns="http://www.w3.org/2000/svg">
<path d="M140.833 21C134.918 21 129.285 18.2231 125.06 13.3636C118.3 5.03306 107.315 5.03306 100.273 13.3636C96.0483 18.2231 90.415 21 84.5 21C78.585 21 72.9517 18.2231 68.7267 13.3636C61.9667 5.03306 50.9817 5.03306 43.94 13.3636C39.715 18.2231 34.0817 21 28.1667 21C22.2517 21 16.6183 18.2231 12.3933 13.3636C9.01333 9.19835 4.50667 7.1157 0 7.1157V0.173554C5.915 0.173554 11.5483 2.95041 15.7733 7.80992C19.1533 11.9752 23.66 14.0579 28.1667 14.0579C32.6733 14.0579 37.18 11.9752 40.56 7.80992C49.5733 -2.60331 63.375 -2.60331 72.1067 7.80992C75.4867 11.9752 79.9933 14.0579 84.5 14.0579C89.0067 14.0579 93.5133 11.9752 96.8933 7.80992C105.907 -2.60331 119.708 -2.60331 128.722 7.80992C131.82 11.9752 136.327 14.0579 140.833 14.0579C145.34 14.0579 149.847 11.9752 153.227 7.80992C157.452 2.95041 163.085 0.173554 169 0.173554V7.1157C164.493 7.1157 159.987 9.19835 156.607 13.3636C152.382 18.2231 146.748 21 140.833 21Z" fill="#E9FF88"/>
<path d="M140.833 52C134.918 52 129.285 49.2231 125.06 44.3636C118.3 36.0331 107.315 36.0331 100.273 44.3636C96.0483 49.2231 90.415 52 84.5 52C78.585 52 72.9517 49.2231 68.7267 44.3636C61.9667 36.0331 50.9817 36.0331 43.94 44.3636C39.715 49.2231 34.0817 52 28.1667 52C22.2517 52 16.6183 49.2231 12.3933 44.3636C9.01333 40.1983 4.50667 38.1157 0 38.1157V31.1736C5.915 31.1736 11.5483 33.9504 15.7733 38.8099C19.1533 42.9752 23.66 45.0579 28.1667 45.0579C32.6733 45.0579 37.18 42.9752 40.56 38.8099C49.5733 28.3967 63.375 28.3967 72.1067 38.8099C75.4867 42.9752 79.9933 45.0579 84.5 45.0579C89.0067 45.0579 93.5133 42.9752 96.8933 38.8099C105.907 28.3967 119.708 28.3967 128.722 38.8099C131.82 42.9752 136.327 45.0579 140.833 45.0579C145.34 45.0579 149.847 42.9752 153.227 38.8099C157.452 33.9504 163.085 31.1736 169 31.1736V38.1157C164.493 38.1157 159.987 40.1983 156.607 44.3636C152.382 49.2231 146.748 52 140.833 52Z" fill="#E9FF88"/>
<path d="M140.833 83C134.918 83 129.285 80.2231 125.06 75.3636C118.3 67.0331 107.315 67.0331 100.273 75.3636C96.0483 80.2231 90.415 83 84.5 83C78.585 83 72.9517 80.2231 68.7267 75.3636C61.9667 67.0331 50.9817 67.0331 43.94 75.3636C39.715 80.2231 34.0817 83 28.1667 83C22.2517 83 16.6183 80.2231 12.3933 75.3636C9.01333 71.1983 4.50667 69.1157 0 69.1157V62.1736C5.915 62.1736 11.5483 64.9504 15.7733 69.8099C19.1533 73.9752 23.66 76.0579 28.1667 76.0579C32.6733 76.0579 37.18 73.9752 40.56 69.8099C49.5733 59.3967 63.375 59.3967 72.1067 69.8099C75.4867 73.9752 79.9933 76.0579 84.5 76.0579C89.0067 76.0579 93.5133 73.9752 96.8933 69.8099C105.907 59.3967 119.708 59.3967 128.722 69.8099C131.82 73.9752 136.327 76.0579 140.833 76.0579C145.34 76.0579 149.847 73.9752 153.227 69.8099C157.452 64.9504 163.085 62.1736 169 62.1736V69.1157C164.493 69.1157 159.987 71.1983 156.607 75.3636C152.382 80.2231 146.748 83 140.833 83Z" fill="#E9FF88"/>
<path d="M140.833 114C134.918 114 129.285 111.223 125.06 106.364C118.3 98.0331 107.315 98.0331 100.273 106.364C96.0483 111.223 90.415 114 84.5 114C78.585 114 72.9517 111.223 68.7267 106.364C61.9667 98.0331 50.9817 98.0331 43.94 106.364C39.715 111.223 34.0817 114 28.1667 114C22.2517 114 16.6183 111.223 12.3933 106.364C9.01333 102.198 4.50667 100.116 0 100.116V93.1736C5.915 93.1736 11.5483 95.9504 15.7733 100.81C19.1533 104.975 23.66 107.058 28.1667 107.058C32.6733 107.058 37.18 104.975 40.56 100.81C49.5733 90.3967 63.375 90.3967 72.1067 100.81C75.4867 104.975 79.9933 107.058 84.5 107.058C89.0067 107.058 93.5133 104.975 96.8933 100.81C105.907 90.3967 119.708 90.3967 128.722 100.81C131.82 104.975 136.327 107.058 140.833 107.058C145.34 107.058 149.847 104.975 153.227 100.81C157.452 95.9504 163.085 93.1736 169 93.1736V100.116C164.493 100.116 159.987 102.198 156.607 106.364C152.382 111.223 146.748 114 140.833 114Z" fill="#E9FF88"/>
</svg>
