<svg width="38" height="57" viewBox="0 0 38 57" fill="none" xmlns="http://www.w3.org/2000/svg">
<path d="M18.6609 35.0923L18.6599 43.3192L18.6578 55.8138H10.8549C9.65601 53.9202 13.3815 52.0935 13.3815 52.0935L13.1983 43.1061L12.9214 29.6143M18.663 35.0923L18.664 43.3192L18.666 55.8138H26.4689C27.6678 53.9202 23.9424 52.0935 23.9424 52.0935L24.1256 43.171L24.4055 29.6153" stroke="#05385F" stroke-width="1.6856" stroke-linecap="round" stroke-linejoin="round"/>
<path d="M18.0261 10.4589H20.8655C21.1057 10.4581 21.3358 10.3623 21.5057 10.1925C21.6756 10.0226 21.7713 9.79249 21.7721 9.55228V4.95723C21.77 4.15344 21.4498 3.38317 20.8815 2.8147C20.3133 2.24624 19.5431 1.92578 18.7393 1.92334H18.0261C17.2222 1.92551 16.4517 2.24585 15.8833 2.81434C15.3148 3.38283 14.9944 4.15326 14.9922 4.95723V7.42713C14.9947 8.23092 15.3152 9.00107 15.8836 9.56934C16.4521 10.1376 17.2223 10.4578 18.0261 10.46V10.4589Z" stroke="#05385F" stroke-width="1.6856" stroke-linecap="round" stroke-linejoin="round"/>
<path d="M21.7112 15.1704H15.6188Z" stroke="#05385F" stroke-width="1.6856" stroke-linecap="round" stroke-linejoin="round"/>
</svg>
