<svg width="34" height="54" viewBox="0 0 34 54" fill="none" xmlns="http://www.w3.org/2000/svg">
<path d="M12.5076 45.7822L12.3212 52.8996L8.63604 49.2144L5.02246 52.8273L5.08229 45.8188" stroke="#05385F" stroke-width="1.764" stroke-linecap="round" stroke-linejoin="round"/>
<path d="M32.9457 9.63214V1.59439C32.9457 1.59439 15.199 1.5282 6.15977 1.39178C1.80497 1.32603 1.03269 4.82617 1.09844 6.02809" stroke="#05385F" stroke-width="1.764" stroke-linecap="round" stroke-linejoin="round"/>
<path d="M32.9922 34.2616L32.9962 27.2803" stroke="#05385F" stroke-width="1.764" stroke-linecap="round" stroke-linejoin="round"/>
<path d="M33.0115 9.98489C33.0115 9.98489 10.7287 10.0097 6.19284 9.98344C0.983525 9.95324 1.06575 5.99976 1.06575 5.99976L1 40.65C1 40.65 1.19712 45.2757 6.3242 45.3367C8.82184 45.3665 33.0115 45.3367 33.0115 45.3367V9.98489Z" stroke="#05385F" stroke-width="1.764" stroke-linecap="round" stroke-linejoin="round"/>
<path d="M28.6759 5.61574V5.53828C28.6759 5.53828 15.8289 5.53495 8.03809 5.52368" stroke="#05385F" stroke-width="1.764" stroke-linecap="round" stroke-linejoin="round"/>
<path d="M28.6759 5.53794C28.6759 5.53794 15.0193 5.53485 7.3291 5.52246" stroke="#05385F" stroke-width="1.764" stroke-linecap="round" stroke-linejoin="round"/>
</svg>
