<svg width="52" height="48" viewBox="0 0 52 48" fill="none" xmlns="http://www.w3.org/2000/svg">
<path d="M46.7029 26.0666C48.0638 24.7102 49.1434 23.0984 49.8797 21.3236C50.6161 19.5489 50.9947 17.6462 50.9938 15.7247C50.9938 11.9788 49.559 8.23186 46.7029 5.37676C44.3647 3.02828 41.2954 1.54776 38.0019 1.17981C33.7305 0.700222 29.2886 2.09818 26.0141 5.37676L25.9967 5.39412L25.9784 5.37676C24.622 4.01587 23.0101 2.93628 21.2354 2.19995C19.4606 1.46361 17.5579 1.08503 15.6365 1.08594C13.7142 1.08447 11.8106 1.46277 10.035 2.19912C8.25932 2.93547 6.64665 4.01535 5.28955 5.37676C-0.42985 11.089 -0.42985 20.3543 5.28955 26.0666L25.9967 46.7738L46.7029 26.0666V26.0666Z" stroke="#05385F" stroke-width="1.8179" stroke-linecap="round" stroke-linejoin="round"/>
<path d="M20.7731 6.21133C19.1874 5.40827 17.5793 4.86133 16.2905 4.86133C14.791 4.86017 13.306 5.15525 11.9209 5.72962C10.5357 6.30399 9.2777 7.14633 8.21903 8.20828C6.68006 9.74072 5.61302 11.6825 5.14453 13.8032" stroke="#05385F" stroke-width="1.6855" stroke-linecap="round" stroke-linejoin="round"/>
</svg>
