<svg width="48" height="46" viewBox="0 0 48 46" fill="none" xmlns="http://www.w3.org/2000/svg">
<path d="M24.3014 1.4185L29.2514 16.6525C29.3314 16.9025 29.5644 17.0705 29.8264 17.0705H45.8443C46.4303 17.0705 46.6744 17.8205 46.2004 18.1665L39.8053 22.8125L33.2413 27.5815C33.1378 27.6566 33.0608 27.7626 33.0213 27.8842C32.9817 28.0058 32.9817 28.1369 33.0213 28.2585L34.8913 34.0135L37.9714 43.4915C38.1524 44.0495 37.5143 44.5135 37.0393 44.1685L30.9844 39.7685L24.0814 34.7535C23.9779 34.6784 23.8532 34.6379 23.7254 34.6379C23.5975 34.6379 23.4728 34.6784 23.3694 34.7535L17.2014 39.2355L10.4114 44.1685C9.93636 44.5135 9.29835 44.0495 9.47935 43.4915L12.2954 34.8245L14.4293 28.2585C14.4689 28.1369 14.469 28.0058 14.4295 27.8842C14.3899 27.7626 14.3129 27.6566 14.2093 27.5815L7.49835 22.7055L1.25035 18.1655C0.776346 17.8215 1.02035 17.0705 1.60635 17.0705H17.6244C17.8864 17.0705 18.1184 16.9015 18.1994 16.6525L23.1493 1.4185C23.3303 0.8605 24.1194 0.8605 24.3014 1.4185V1.4185Z" stroke="#05385F" stroke-width="1.6905" stroke-linecap="round" stroke-linejoin="round"/>
</svg>
