<svg width="47" height="43" viewBox="0 0 47 43" fill="none" xmlns="http://www.w3.org/2000/svg">
<path d="M15.5205 6.8821V3.87991C15.5208 3.13938 15.8151 2.42925 16.3387 1.90561C16.8624 1.38197 17.5725 1.08767 18.313 1.0874H28.9245C29.665 1.08767 30.3752 1.38197 30.8988 1.90561C31.4224 2.42925 31.7167 3.13938 31.717 3.87991V6.95165" stroke="#05385F" stroke-width="1.83456"/>
<path d="M1 27.3022H45.5409" stroke="#05385F" stroke-width="1.83456"/>
<path d="M18.3574 27.8256V32.4246H28.8728V27.616" stroke="#05385F" stroke-width="1.83456" stroke-linecap="round" stroke-linejoin="round"/>
<path d="M45.68 12.8159V36.273C45.6792 37.7539 45.0905 39.174 44.0433 40.2212C42.9961 41.2685 41.576 41.8571 40.095 41.8579H6.58501C5.10402 41.8571 3.68393 41.2685 2.63671 40.2212C1.5895 39.174 1.00081 37.7539 1 36.273V12.8159C1.00081 11.335 1.5895 9.91487 2.63671 8.86766C3.68393 7.82044 5.10402 7.23177 6.58501 7.23096H40.095C41.576 7.23177 42.9961 7.82044 44.0433 8.86766C45.0905 9.91487 45.6792 11.335 45.68 12.8159Z" stroke="#05385F" stroke-width="1.83456"/>
</svg>
