<svg width="50" height="27" viewBox="0 0 50 27" fill="none" xmlns="http://www.w3.org/2000/svg">
<path d="M2.89795 0.562622L49.8975 7.06252L47.0092 25.4886L0.135251 18.4436L2.89795 0.562622Z" fill="#05385F"/>
<mask id="mask0" mask-type="alpha" maskUnits="userSpaceOnUse" x="0" y="0" width="50" height="27">
<rect x="2.94141" y="0.649902" width="47.4004" height="18.5876" transform="rotate(9.10413 2.94141 0.649902)" fill="#05385F"/>
</mask>
<g mask="url(#mask0)">
<path d="M39.7696 22.4525C38.0992 22.1775 36.6152 21.2671 35.609 19.9361C34.0204 17.6767 30.9184 17.1658 28.6096 18.7834C27.2297 19.7215 25.5321 20.1078 23.8618 19.8328C22.1915 19.5577 20.7075 18.6474 19.7012 17.3163C18.1126 15.0569 15.0106 14.546 12.7018 16.1636C11.3219 17.1017 9.62435 17.488 7.95403 17.213C6.28372 16.9379 4.79971 16.0276 3.79348 14.6965C2.99917 13.5668 1.80663 12.871 0.534012 12.6614L0.800944 11.0405C2.47126 11.3156 3.95526 12.2259 4.96149 13.557C5.7558 14.6867 6.94834 15.3825 8.22096 15.5921C9.49358 15.8017 10.8463 15.525 11.9609 14.7097C14.9065 12.6976 18.804 13.3394 20.8693 16.1768C21.6636 17.3065 22.8561 18.0023 24.1287 18.2119C25.4013 18.4215 26.754 18.1448 27.8687 17.3295C30.8143 15.3174 34.7117 15.9592 36.8566 18.8097C37.5713 19.9263 38.7639 20.6221 40.0365 20.8317C41.3091 21.0413 42.6618 20.7646 43.7764 19.9493C45.1564 19.0112 46.8539 18.6248 48.5242 18.8999L48.2573 20.5207C46.9847 20.3111 45.632 20.5878 44.5174 21.4031C43.1374 22.3413 41.4399 22.7276 39.7696 22.4525Z" fill="white"/>
<path d="M40.7696 14.4525C39.0992 14.1775 37.6152 13.2671 36.609 11.9361C35.0204 9.67667 31.9184 9.16581 29.6096 10.7834C28.2297 11.7215 26.5321 12.1078 24.8618 11.8328C23.1915 11.5577 21.7075 10.6474 20.7012 9.31628C19.1126 7.05688 16.0106 6.54602 13.7018 8.16357C12.3219 9.10169 10.6243 9.48805 8.95403 9.21297C7.28372 8.93789 5.79971 8.02757 4.79348 6.69649C3.99917 5.56679 2.80663 4.87096 1.53401 4.66137L1.80094 3.04052C3.47126 3.3156 4.95526 4.22592 5.96149 5.557C6.7558 6.6867 7.94834 7.38254 9.22096 7.59212C10.4936 7.8017 11.8463 7.52503 12.9609 6.7097C15.9065 4.69759 19.804 5.33944 21.8693 8.17678C22.6636 9.30648 23.8561 10.0023 25.1287 10.2119C26.4013 10.4215 27.754 10.1448 28.8687 9.32949C31.8143 7.31738 35.7117 7.95922 37.8566 10.8097C38.5713 11.9263 39.7639 12.6221 41.0365 12.8317C42.3091 13.0413 43.6618 12.7646 44.7764 11.9493C46.1564 11.0112 47.8539 10.6248 49.5242 10.8999L49.2573 12.5207C47.9847 12.3111 46.632 12.5878 45.5174 13.4031C44.1374 14.3413 42.4399 14.7276 40.7696 14.4525Z" fill="white"/>
</g>
</svg>
