<svg width="243" height="196" viewBox="0 0 243 196" fill="none" xmlns="http://www.w3.org/2000/svg">
<path fill-rule="evenodd" clip-rule="evenodd" d="M233 11H0V156H14.7139L9.73518 195.725L57.89 156H233V11Z" fill="white"/>
<mask id="path-2-inside-1" fill="white">
<path fill-rule="evenodd" clip-rule="evenodd" d="M243 0H10V145H24.7139L19.7352 184.725L67.89 145H243V0Z"/>
</mask>
<path d="M10 0V-1H9V0H10ZM243 0H244V-1H243V0ZM10 145H9V146H10V145ZM24.7139 145L25.7061 145.124L25.8471 144H24.7139V145ZM19.7352 184.725L18.7429 184.6L18.4299 187.098L20.3715 185.496L19.7352 184.725ZM67.89 145V144H67.5308L67.2536 144.229L67.89 145ZM243 145V146H244V145H243ZM10 1H243V-1H10V1ZM11 145V0H9V145H11ZM24.7139 144H10V146H24.7139V144ZM20.7274 184.849L25.7061 145.124L23.7217 144.876L18.7429 184.6L20.7274 184.849ZM67.2536 144.229L19.0988 183.953L20.3715 185.496L68.5264 145.771L67.2536 144.229ZM243 144H67.89V146H243V144ZM242 0V145H244V0H242Z" fill="#05385F" mask="url(#path-2-inside-1)"/>
</svg>
